<?xml version="1.0" standalone="no"?>
<!DOCTYPE svg PUBLIC "-//W3C//DTD SVG 20010904//EN"
 "http://www.w3.org/TR/2001/REC-SVG-20010904/DTD/svg10.dtd">
<svg version="1.0" xmlns="http://www.w3.org/2000/svg"
 width="1280.000000pt" height="1109.000000pt" viewBox="0 0 1280.000000 1109.000000"
 preserveAspectRatio="xMidYMid meet">
<metadata>
Created by potrace 1.15, written by Peter Selinger 2001-2017
</metadata>
<g transform="translate(0.000000,1109.000000) scale(0.100000,-0.100000)"
fill="#000000" stroke="none">
<path d="M6205 11080 c-347 -35 -636 -116 -940 -265 -398 -194 -734 -484 -960
-827 -21 -32 -41 -58 -44 -58 -3 0 -41 14 -83 30 -158 61 -328 85 -497 69
-304 -28 -557 -158 -785 -400 -140 -149 -260 -348 -331 -551 -15 -43 -29 -78
-30 -78 -1 0 -22 7 -46 15 -309 109 -774 140 -1144 76 -680 -118 -1187 -491
-1317 -969 -31 -112 -30 -325 0 -437 127 -459 622 -832 1269 -956 l62 -11 -5
-32 c-3 -17 -7 -39 -9 -49 -9 -44 17 -156 52 -227 29 -59 57 -96 132 -171 103
-103 188 -163 346 -245 186 -97 482 -207 714 -266 l93 -23 -5 -53 c-8 -80 11
-178 50 -262 28 -59 54 -93 122 -160 118 -117 260 -195 432 -239 l73 -18 11
-54 c7 -30 15 -61 19 -69 5 -12 -9 -25 -55 -50 -60 -34 -61 -36 -55 -70 3 -19
9 -59 12 -88 4 -29 10 -55 15 -57 4 -3 175 -39 380 -81 205 -41 375 -76 377
-78 1 -2 -424 -274 -946 -605 l-949 -601 15 -88 c8 -48 16 -88 17 -89 1 -3
448 -102 1275 -284 300 -66 556 -123 570 -128 23 -7 7 -21 -190 -167 -118 -88
-498 -372 -845 -630 -346 -258 -635 -473 -641 -477 -6 -3 -175 45 -375 107
-475 148 -559 174 -559 172 0 0 146 -368 324 -816 l324 -815 41 -3 c37 -3 143
24 681 174 69 19 449 124 845 233 l720 198 3 95 3 94 -358 98 c-431 117 -392
104 -372 119 8 7 577 473 1264 1036 1011 831 1244 1026 1229 1033 -22 8 -2172
358 -2203 358 -31 0 -25 12 17 36 20 12 331 206 689 432 l653 410 177 6 c793
29 1379 161 1650 372 65 51 128 131 138 174 6 29 8 30 69 30 205 0 433 134
512 300 l29 62 200 -5 c245 -7 745 8 995 28 1294 107 2253 432 2539 861 50 74
91 180 91 234 l0 28 113 0 c132 0 216 13 330 48 159 51 302 139 415 258 84 89
124 146 167 240 157 338 87 717 -179 982 -172 171 -408 275 -661 291 l-100 6
18 101 c24 135 33 393 18 537 -69 680 -433 1278 -1011 1662 -121 81 -384 211
-515 255 -307 104 -611 145 -913 123 -419 -31 -779 -148 -1105 -360 l-107 -71
-63 51 c-337 272 -809 469 -1277 534 -138 19 -489 27 -615 15z"/>
<path d="M9381 4480 c-233 -169 -453 -337 -488 -372 -165 -162 -264 -337 -293
-521 -45 -275 160 -512 429 -495 234 15 447 193 586 491 36 78 149 430 306
952 17 55 34 110 39 122 8 20 3 27 -43 61 -74 54 -101 72 -107 71 -3 0 -196
-139 -429 -309z"/>
<path d="M7045 3001 c-430 -312 -540 -405 -637 -541 -52 -73 -107 -179 -134
-255 -23 -66 -30 -231 -14 -293 67 -245 304 -366 554 -283 212 70 409 303 510
604 13 40 38 117 55 172 16 55 78 255 136 444 58 190 102 348 98 351 -27 23
-142 100 -149 99 -5 0 -193 -134 -419 -298z"/>
<path d="M10120 2885 c-243 -175 -441 -326 -494 -376 -153 -145 -262 -313
-301 -464 -19 -75 -19 -215 0 -279 59 -194 256 -317 456 -285 128 21 221 70
332 178 115 112 222 290 276 461 20 65 197 641 251 820 42 138 45 125 -40 185
l-75 53 -405 -293z"/>
</g>
</svg>
