<?xml version="1.0" standalone="no"?>
<!DOCTYPE svg PUBLIC "-//W3C//DTD SVG 20010904//EN"
 "http://www.w3.org/TR/2001/REC-SVG-20010904/DTD/svg10.dtd">
<svg version="1.0" xmlns="http://www.w3.org/2000/svg"
 width="1015.000000pt" height="1280.000000pt" viewBox="0 0 1015.000000 1280.000000"
 preserveAspectRatio="xMidYMid meet">
<metadata>
Created by potrace 1.15, written by Peter Selinger 2001-2017
</metadata>
<g transform="translate(0.000000,1280.000000) scale(0.100000,-0.100000)"
fill="#000000" stroke="none">
<path d="M482 12789 c-54 -10 -141 -50 -186 -84 -45 -34 -66 -80 -67 -149 -1
-45 3 -64 25 -96 26 -40 109 -96 157 -106 35 -8 39 -32 39 -266 0 -158 -3
-191 -17 -216 -14 -24 -15 -35 -6 -54 19 -38 24 -118 30 -433 2 -165 7 -319
10 -343 3 -23 1 -48 -5 -55 -13 -16 -7 -739 7 -837 6 -44 17 -536 25 -1189 8
-613 23 -1553 32 -2090 9 -537 13 -1034 9 -1106 -4 -71 -10 -268 -13 -436 l-7
-306 -37 -35 c-21 -19 -38 -40 -38 -46 0 -5 -9 -12 -20 -15 -14 -4 -20 -14
-20 -34 0 -16 -5 -34 -12 -41 -15 -15 9 -45 30 -37 16 6 43 -25 52 -60 4 -14
19 -23 48 -29 34 -7 41 -12 35 -25 -12 -27 -16 -162 -4 -174 15 -15 15 -110
-1 -101 -8 5 -9 -4 -5 -32 14 -89 28 -435 33 -844 10 -925 39 -2731 51 -3257
l6 -293 245 0 245 0 -7 273 c-18 722 -53 1865 -116 3792 -22 666 -49 1496 -60
1845 -11 349 -25 732 -30 850 -5 118 -10 232 -10 254 l0 38 88 -3 c48 -2 92
-1 97 2 10 6 931 -84 1430 -141 154 -17 354 -44 444 -61 401 -72 673 -102
1106 -124 596 -29 1035 -72 1350 -130 256 -48 341 -57 485 -51 196 7 244 20
735 189 88 31 219 74 290 97 72 23 193 69 270 102 203 87 718 348 827 420 108
71 182 108 218 108 18 0 72 -38 180 -128 102 -84 178 -139 223 -160 37 -17
131 -73 209 -123 178 -117 242 -143 406 -171 126 -21 132 -21 177 -4 57 22
101 78 180 231 56 106 57 111 50 165 -17 122 6 419 42 555 9 33 19 114 23 180
8 151 56 359 104 459 20 39 38 91 42 116 3 25 37 117 74 206 97 227 167 439
186 564 45 294 -31 660 -216 1035 -164 334 -353 569 -612 763 -48 36 -88 72
-88 79 0 29 -20 54 -37 45 -10 -6 -25 -5 -40 3 -39 20 -170 -9 -288 -65 -78
-36 -130 -72 -236 -158 -75 -61 -146 -127 -158 -145 -19 -32 -29 -37 -124 -60
-56 -14 -228 -49 -382 -77 -154 -28 -333 -65 -398 -82 l-119 -31 -66 31 c-37
17 -85 36 -107 42 -163 40 -298 97 -639 270 -197 101 -413 207 -480 237 -299
135 -586 202 -988 233 -76 6 -409 17 -740 25 -332 8 -693 20 -803 25 -742 38
-1435 112 -2260 239 -137 22 -279 42 -315 46 -36 3 -106 16 -155 28 l-90 22 0
168 c0 142 2 170 16 180 33 25 54 105 35 135 -4 7 -3 18 2 25 5 7 13 23 17 37
4 14 18 37 30 52 12 14 25 45 29 68 28 176 -203 316 -442 269z m256 -484 c-6
-63 -18 -68 -18 -7 0 30 4 52 11 52 6 0 9 -17 7 -45z m4 -107 c-9 -9 -12 -7
-12 12 0 19 3 21 12 12 9 -9 9 -15 0 -24z m18 -228 c0 -93 -2 -109 -15 -104
-12 5 -15 26 -15 103 0 54 3 101 7 104 18 19 23 -2 23 -103z m-202 -6934 c-3
-220 -4 -231 -22 -231 -11 0 -27 13 -36 30 -16 29 -16 32 9 75 28 51 27 42 30
250 2 110 5 148 12 131 5 -13 8 -124 7 -255z"/>
</g>
</svg>
